# xmcd
#
# Track frame offsets: 
#        150
#        18485
#        60720
#        95272
#        125892
#
# Disc length: 2115 seconds
#
# Revision: 3
# Processed by: cddbd v1.5.2PL0 Copyright (c) Steve Scherf et al.
# Submitted via: ExactAudioCopy v0.95b4
#
DISCID=3f084105
DTITLE=Jamiroquai - Cosmic Girl
DYEAR=1900
DGENRE=
TTITLE0=Cosmic Girl (Album Version)
TTITLE1=Cosmic Girl (Classic Mix)
TTITLE2=Cosmic Girl (Quasar Mix)
TTITLE3=Cosmic Girl (Cosmic Dub)
TTITLE4=Cosmic Girl (Quasar Dub)
EXTD=
EXTT0=
EXTT1=
EXTT2=
EXTT3=
EXTT4=
PLAYORDER=
